<mxfile host="app.diagrams.net" modified="2023-12-16T07:54:42.558Z" agent="Mozilla/5.0 (Macintosh; Intel Mac OS X 10_15_7) AppleWebKit/537.36 (KHTML, like Gecko) Chrome/120.0.0.0 Safari/537.36" etag="_uabEmvRPM0FSQdtzwPd" version="22.1.9" type="device" pages="3">
  <diagram name="Page-1" id="vfHGvTpzAUw9W2T8gh5R">
    <mxGraphModel dx="1434" dy="910" grid="1" gridSize="10" guides="1" tooltips="1" connect="1" arrows="1" fold="1" page="1" pageScale="1" pageWidth="1100" pageHeight="850" math="0" shadow="0">
      <root>
        <mxCell id="0" />
        <mxCell id="1" parent="0" />
        <mxCell id="UsQSxmgThS2UPmEDzRYc-1" value="Bir gün, bir gün bir çocuk eve gelmiş kimse yok" style="text;html=1;strokeColor=none;fillColor=none;align=center;verticalAlign=middle;whiteSpace=wrap;rounded=0;fontSize=18;" parent="1" vertex="1">
          <mxGeometry x="120" y="40" width="430" height="60" as="geometry" />
        </mxCell>
        <mxCell id="UsQSxmgThS2UPmEDzRYc-2" value="bir" style="text;html=1;align=center;verticalAlign=middle;resizable=0;points=[];autosize=1;strokeColor=none;fillColor=none;" parent="1" vertex="1">
          <mxGeometry x="220" y="268" width="40" height="30" as="geometry" />
        </mxCell>
        <mxCell id="UsQSxmgThS2UPmEDzRYc-3" value="gün" style="text;html=1;align=center;verticalAlign=middle;resizable=0;points=[];autosize=1;strokeColor=none;fillColor=none;" parent="1" vertex="1">
          <mxGeometry x="220" y="298" width="40" height="30" as="geometry" />
        </mxCell>
        <mxCell id="UsQSxmgThS2UPmEDzRYc-4" value="çocuk" style="text;html=1;align=center;verticalAlign=middle;resizable=0;points=[];autosize=1;strokeColor=none;fillColor=none;" parent="1" vertex="1">
          <mxGeometry x="215" y="328" width="50" height="30" as="geometry" />
        </mxCell>
        <mxCell id="UsQSxmgThS2UPmEDzRYc-5" value="eve" style="text;html=1;align=center;verticalAlign=middle;resizable=0;points=[];autosize=1;strokeColor=none;fillColor=none;" parent="1" vertex="1">
          <mxGeometry x="220" y="358" width="40" height="30" as="geometry" />
        </mxCell>
        <mxCell id="UsQSxmgThS2UPmEDzRYc-6" value="gelmiş" style="text;html=1;align=center;verticalAlign=middle;resizable=0;points=[];autosize=1;strokeColor=none;fillColor=none;" parent="1" vertex="1">
          <mxGeometry x="215" y="395" width="60" height="30" as="geometry" />
        </mxCell>
        <mxCell id="UsQSxmgThS2UPmEDzRYc-7" value="kimse" style="text;html=1;align=center;verticalAlign=middle;resizable=0;points=[];autosize=1;strokeColor=none;fillColor=none;" parent="1" vertex="1">
          <mxGeometry x="215" y="425" width="50" height="30" as="geometry" />
        </mxCell>
        <mxCell id="UsQSxmgThS2UPmEDzRYc-8" value="yok" style="text;html=1;align=center;verticalAlign=middle;resizable=0;points=[];autosize=1;strokeColor=none;fillColor=none;" parent="1" vertex="1">
          <mxGeometry x="220" y="470" width="40" height="30" as="geometry" />
        </mxCell>
        <mxCell id="UsQSxmgThS2UPmEDzRYc-9" value="Bir gün demir almak vakti gelmişse zamandan&lt;br&gt;Meçhule giden bir gemi kalkar bu limandan" style="text;html=1;strokeColor=none;fillColor=none;align=center;verticalAlign=middle;whiteSpace=wrap;rounded=0;fontSize=18;" parent="1" vertex="1">
          <mxGeometry x="670" y="40" width="430" height="60" as="geometry" />
        </mxCell>
        <mxCell id="UsQSxmgThS2UPmEDzRYc-10" value="1" style="text;html=1;align=center;verticalAlign=middle;resizable=0;points=[];autosize=1;strokeColor=none;fillColor=none;" parent="1" vertex="1">
          <mxGeometry x="55" y="48" width="30" height="30" as="geometry" />
        </mxCell>
        <mxCell id="UsQSxmgThS2UPmEDzRYc-11" value="2" style="text;html=1;align=center;verticalAlign=middle;resizable=0;points=[];autosize=1;strokeColor=none;fillColor=none;" parent="1" vertex="1">
          <mxGeometry x="630" y="55" width="30" height="30" as="geometry" />
        </mxCell>
        <mxCell id="UsQSxmgThS2UPmEDzRYc-12" value="" style="shape=table;startSize=0;container=1;collapsible=0;childLayout=tableLayout;fontSize=16;" parent="1" vertex="1">
          <mxGeometry x="460" y="360" width="550" height="120" as="geometry" />
        </mxCell>
        <mxCell id="UsQSxmgThS2UPmEDzRYc-13" value="" style="shape=tableRow;horizontal=0;startSize=0;swimlaneHead=0;swimlaneBody=0;strokeColor=inherit;top=0;left=0;bottom=0;right=0;collapsible=0;dropTarget=0;fillColor=none;points=[[0,0.5],[1,0.5]];portConstraint=eastwest;fontSize=16;" parent="UsQSxmgThS2UPmEDzRYc-12" vertex="1">
          <mxGeometry width="550" height="40" as="geometry" />
        </mxCell>
        <mxCell id="UsQSxmgThS2UPmEDzRYc-14" value="kelime" style="shape=partialRectangle;html=1;whiteSpace=wrap;connectable=0;strokeColor=inherit;overflow=hidden;fillColor=none;top=0;left=0;bottom=0;right=0;pointerEvents=1;fontSize=16;" parent="UsQSxmgThS2UPmEDzRYc-13" vertex="1">
          <mxGeometry width="183" height="40" as="geometry">
            <mxRectangle width="183" height="40" as="alternateBounds" />
          </mxGeometry>
        </mxCell>
        <mxCell id="UsQSxmgThS2UPmEDzRYc-15" value="freq" style="shape=partialRectangle;html=1;whiteSpace=wrap;connectable=0;strokeColor=inherit;overflow=hidden;fillColor=none;top=0;left=0;bottom=0;right=0;pointerEvents=1;fontSize=16;" parent="UsQSxmgThS2UPmEDzRYc-13" vertex="1">
          <mxGeometry x="183" width="184" height="40" as="geometry">
            <mxRectangle width="184" height="40" as="alternateBounds" />
          </mxGeometry>
        </mxCell>
        <mxCell id="UsQSxmgThS2UPmEDzRYc-16" value="docs" style="shape=partialRectangle;html=1;whiteSpace=wrap;connectable=0;strokeColor=inherit;overflow=hidden;fillColor=none;top=0;left=0;bottom=0;right=0;pointerEvents=1;fontSize=16;" parent="UsQSxmgThS2UPmEDzRYc-13" vertex="1">
          <mxGeometry x="367" width="183" height="40" as="geometry">
            <mxRectangle width="183" height="40" as="alternateBounds" />
          </mxGeometry>
        </mxCell>
        <mxCell id="UsQSxmgThS2UPmEDzRYc-17" value="" style="shape=tableRow;horizontal=0;startSize=0;swimlaneHead=0;swimlaneBody=0;strokeColor=inherit;top=0;left=0;bottom=0;right=0;collapsible=0;dropTarget=0;fillColor=none;points=[[0,0.5],[1,0.5]];portConstraint=eastwest;fontSize=16;" parent="UsQSxmgThS2UPmEDzRYc-12" vertex="1">
          <mxGeometry y="40" width="550" height="40" as="geometry" />
        </mxCell>
        <mxCell id="UsQSxmgThS2UPmEDzRYc-18" value="bir" style="shape=partialRectangle;html=1;whiteSpace=wrap;connectable=0;strokeColor=inherit;overflow=hidden;fillColor=none;top=0;left=0;bottom=0;right=0;pointerEvents=1;fontSize=16;" parent="UsQSxmgThS2UPmEDzRYc-17" vertex="1">
          <mxGeometry width="183" height="40" as="geometry">
            <mxRectangle width="183" height="40" as="alternateBounds" />
          </mxGeometry>
        </mxCell>
        <mxCell id="UsQSxmgThS2UPmEDzRYc-19" value="" style="shape=partialRectangle;html=1;whiteSpace=wrap;connectable=0;strokeColor=inherit;overflow=hidden;fillColor=none;top=0;left=0;bottom=0;right=0;pointerEvents=1;fontSize=16;" parent="UsQSxmgThS2UPmEDzRYc-17" vertex="1">
          <mxGeometry x="183" width="184" height="40" as="geometry">
            <mxRectangle width="184" height="40" as="alternateBounds" />
          </mxGeometry>
        </mxCell>
        <mxCell id="UsQSxmgThS2UPmEDzRYc-20" value="1,2" style="shape=partialRectangle;html=1;whiteSpace=wrap;connectable=0;strokeColor=inherit;overflow=hidden;fillColor=none;top=0;left=0;bottom=0;right=0;pointerEvents=1;fontSize=16;" parent="UsQSxmgThS2UPmEDzRYc-17" vertex="1">
          <mxGeometry x="367" width="183" height="40" as="geometry">
            <mxRectangle width="183" height="40" as="alternateBounds" />
          </mxGeometry>
        </mxCell>
        <mxCell id="UsQSxmgThS2UPmEDzRYc-21" value="" style="shape=tableRow;horizontal=0;startSize=0;swimlaneHead=0;swimlaneBody=0;strokeColor=inherit;top=0;left=0;bottom=0;right=0;collapsible=0;dropTarget=0;fillColor=none;points=[[0,0.5],[1,0.5]];portConstraint=eastwest;fontSize=16;" parent="UsQSxmgThS2UPmEDzRYc-12" vertex="1">
          <mxGeometry y="80" width="550" height="40" as="geometry" />
        </mxCell>
        <mxCell id="UsQSxmgThS2UPmEDzRYc-22" value="gün" style="shape=partialRectangle;html=1;whiteSpace=wrap;connectable=0;strokeColor=inherit;overflow=hidden;fillColor=none;top=0;left=0;bottom=0;right=0;pointerEvents=1;fontSize=16;" parent="UsQSxmgThS2UPmEDzRYc-21" vertex="1">
          <mxGeometry width="183" height="40" as="geometry">
            <mxRectangle width="183" height="40" as="alternateBounds" />
          </mxGeometry>
        </mxCell>
        <mxCell id="UsQSxmgThS2UPmEDzRYc-23" value="&lt;br&gt;&lt;br&gt;&lt;br&gt;" style="shape=partialRectangle;html=1;whiteSpace=wrap;connectable=0;strokeColor=inherit;overflow=hidden;fillColor=none;top=0;left=0;bottom=0;right=0;pointerEvents=1;fontSize=16;" parent="UsQSxmgThS2UPmEDzRYc-21" vertex="1">
          <mxGeometry x="183" width="184" height="40" as="geometry">
            <mxRectangle width="184" height="40" as="alternateBounds" />
          </mxGeometry>
        </mxCell>
        <mxCell id="UsQSxmgThS2UPmEDzRYc-24" value="1,2" style="shape=partialRectangle;html=1;whiteSpace=wrap;connectable=0;strokeColor=inherit;overflow=hidden;fillColor=none;top=0;left=0;bottom=0;right=0;pointerEvents=1;fontSize=16;" parent="UsQSxmgThS2UPmEDzRYc-21" vertex="1">
          <mxGeometry x="367" width="183" height="40" as="geometry">
            <mxRectangle width="183" height="40" as="alternateBounds" />
          </mxGeometry>
        </mxCell>
      </root>
    </mxGraphModel>
  </diagram>
  <diagram id="PtQRHLvTrnjXDgDOJUfj" name="Page-2">
    <mxGraphModel dx="1674" dy="910" grid="1" gridSize="10" guides="1" tooltips="1" connect="1" arrows="1" fold="1" page="1" pageScale="1" pageWidth="1100" pageHeight="850" math="0" shadow="0">
      <root>
        <mxCell id="0" />
        <mxCell id="1" parent="0" />
        <mxCell id="aZda3mHbv9DGWQ5qxXFO-1" value="" style="rounded=1;whiteSpace=wrap;html=1;" vertex="1" parent="1">
          <mxGeometry x="80" y="40" width="350" height="280" as="geometry" />
        </mxCell>
        <mxCell id="aZda3mHbv9DGWQ5qxXFO-2" value="" style="rounded=1;whiteSpace=wrap;html=1;" vertex="1" parent="1">
          <mxGeometry x="450" y="40" width="350" height="280" as="geometry" />
        </mxCell>
        <mxCell id="aZda3mHbv9DGWQ5qxXFO-17" value="" style="edgeStyle=orthogonalEdgeStyle;rounded=0;orthogonalLoop=1;jettySize=auto;html=1;" edge="1" parent="1" source="aZda3mHbv9DGWQ5qxXFO-3" target="aZda3mHbv9DGWQ5qxXFO-8">
          <mxGeometry relative="1" as="geometry" />
        </mxCell>
        <mxCell id="aZda3mHbv9DGWQ5qxXFO-3" value="" style="rounded=1;whiteSpace=wrap;html=1;" vertex="1" parent="1">
          <mxGeometry x="820" y="40" width="350" height="280" as="geometry" />
        </mxCell>
        <mxCell id="aZda3mHbv9DGWQ5qxXFO-4" value="" style="rounded=1;whiteSpace=wrap;html=1;" vertex="1" parent="1">
          <mxGeometry x="1190" y="40" width="350" height="280" as="geometry" />
        </mxCell>
        <mxCell id="aZda3mHbv9DGWQ5qxXFO-5" value="SHARD" style="shape=cylinder3;whiteSpace=wrap;html=1;boundedLbl=1;backgroundOutline=1;size=15;fillColor=#647687;fontColor=#ffffff;strokeColor=#314354;" vertex="1" parent="1">
          <mxGeometry x="130" y="80" width="60" height="80" as="geometry" />
        </mxCell>
        <mxCell id="aZda3mHbv9DGWQ5qxXFO-6" value="SHARD" style="shape=cylinder3;whiteSpace=wrap;html=1;boundedLbl=1;backgroundOutline=1;size=15;fillColor=#647687;fontColor=#ffffff;strokeColor=#314354;" vertex="1" parent="1">
          <mxGeometry x="480" y="80" width="60" height="80" as="geometry" />
        </mxCell>
        <mxCell id="aZda3mHbv9DGWQ5qxXFO-7" value="SHARD" style="shape=cylinder3;whiteSpace=wrap;html=1;boundedLbl=1;backgroundOutline=1;size=15;fillColor=#647687;fontColor=#ffffff;strokeColor=#314354;" vertex="1" parent="1">
          <mxGeometry x="850" y="80" width="60" height="80" as="geometry" />
        </mxCell>
        <mxCell id="aZda3mHbv9DGWQ5qxXFO-8" value="SHARD" style="shape=cylinder3;whiteSpace=wrap;html=1;boundedLbl=1;backgroundOutline=1;size=15;fillColor=#647687;fontColor=#ffffff;strokeColor=#314354;" vertex="1" parent="1">
          <mxGeometry x="1230" y="80" width="60" height="80" as="geometry" />
        </mxCell>
        <mxCell id="aZda3mHbv9DGWQ5qxXFO-9" value="REPLICA" style="shape=cylinder3;whiteSpace=wrap;html=1;boundedLbl=1;backgroundOutline=1;size=15;fillColor=#fa6800;fontColor=#000000;strokeColor=#C73500;" vertex="1" parent="1">
          <mxGeometry x="340" y="210" width="60" height="80" as="geometry" />
        </mxCell>
        <mxCell id="aZda3mHbv9DGWQ5qxXFO-11" value="REPLICA" style="shape=cylinder3;whiteSpace=wrap;html=1;boundedLbl=1;backgroundOutline=1;size=15;fillColor=#fa6800;fontColor=#000000;strokeColor=#C73500;" vertex="1" parent="1">
          <mxGeometry x="720" y="220" width="60" height="80" as="geometry" />
        </mxCell>
        <mxCell id="aZda3mHbv9DGWQ5qxXFO-12" value="REPLICA" style="shape=cylinder3;whiteSpace=wrap;html=1;boundedLbl=1;backgroundOutline=1;size=15;fillColor=#fa6800;fontColor=#000000;strokeColor=#C73500;" vertex="1" parent="1">
          <mxGeometry x="1090" y="220" width="60" height="80" as="geometry" />
        </mxCell>
        <mxCell id="aZda3mHbv9DGWQ5qxXFO-13" value="REPLICA" style="shape=cylinder3;whiteSpace=wrap;html=1;boundedLbl=1;backgroundOutline=1;size=15;fillColor=#fa6800;fontColor=#000000;strokeColor=#C73500;" vertex="1" parent="1">
          <mxGeometry x="1460" y="230" width="60" height="80" as="geometry" />
        </mxCell>
        <mxCell id="aZda3mHbv9DGWQ5qxXFO-14" value="" style="rounded=1;whiteSpace=wrap;html=1;" vertex="1" parent="1">
          <mxGeometry x="80" y="360" width="350" height="280" as="geometry" />
        </mxCell>
        <mxCell id="aZda3mHbv9DGWQ5qxXFO-15" value="SHARD" style="shape=cylinder3;whiteSpace=wrap;html=1;boundedLbl=1;backgroundOutline=1;size=15;fillColor=#647687;fontColor=#ffffff;strokeColor=#314354;" vertex="1" parent="1">
          <mxGeometry x="120" y="400" width="60" height="80" as="geometry" />
        </mxCell>
        <mxCell id="aZda3mHbv9DGWQ5qxXFO-16" value="REPLICA" style="shape=cylinder3;whiteSpace=wrap;html=1;boundedLbl=1;backgroundOutline=1;size=15;fillColor=#fa6800;fontColor=#000000;strokeColor=#C73500;" vertex="1" parent="1">
          <mxGeometry x="350" y="550" width="60" height="80" as="geometry" />
        </mxCell>
      </root>
    </mxGraphModel>
  </diagram>
  <diagram id="cHIHcv9MZ-RNN2wUmoET" name="Page-3">
    <mxGraphModel dx="1434" dy="910" grid="1" gridSize="10" guides="1" tooltips="1" connect="1" arrows="1" fold="1" page="1" pageScale="1" pageWidth="1100" pageHeight="850" math="0" shadow="0">
      <root>
        <mxCell id="0" />
        <mxCell id="1" parent="0" />
        <mxCell id="eQuBDasWxpKYxFqf2gX8-2" value="GW" style="rhombus;whiteSpace=wrap;html=1;" vertex="1" parent="1">
          <mxGeometry x="100" y="280" width="80" height="80" as="geometry" />
        </mxCell>
        <mxCell id="eQuBDasWxpKYxFqf2gX8-10" style="edgeStyle=orthogonalEdgeStyle;rounded=0;orthogonalLoop=1;jettySize=auto;html=1;exitX=0.5;exitY=1;exitDx=0;exitDy=0;exitPerimeter=0;entryX=1;entryY=0.5;entryDx=0;entryDy=0;" edge="1" parent="1" source="eQuBDasWxpKYxFqf2gX8-3" target="eQuBDasWxpKYxFqf2gX8-8">
          <mxGeometry relative="1" as="geometry" />
        </mxCell>
        <mxCell id="eQuBDasWxpKYxFqf2gX8-11" style="edgeStyle=orthogonalEdgeStyle;rounded=0;orthogonalLoop=1;jettySize=auto;html=1;exitX=0.5;exitY=1;exitDx=0;exitDy=0;exitPerimeter=0;entryX=1;entryY=0.5;entryDx=0;entryDy=0;" edge="1" parent="1" source="eQuBDasWxpKYxFqf2gX8-3" target="eQuBDasWxpKYxFqf2gX8-9">
          <mxGeometry relative="1" as="geometry" />
        </mxCell>
        <mxCell id="eQuBDasWxpKYxFqf2gX8-3" value="QUEUE" style="shape=cylinder3;whiteSpace=wrap;html=1;boundedLbl=1;backgroundOutline=1;size=15;rotation=-90;" vertex="1" parent="1">
          <mxGeometry x="487.5" y="132.5" width="60" height="375" as="geometry" />
        </mxCell>
        <mxCell id="eQuBDasWxpKYxFqf2gX8-4" style="edgeStyle=orthogonalEdgeStyle;rounded=0;orthogonalLoop=1;jettySize=auto;html=1;exitX=1;exitY=0.5;exitDx=0;exitDy=0;entryX=0.5;entryY=0;entryDx=0;entryDy=0;entryPerimeter=0;" edge="1" parent="1" source="eQuBDasWxpKYxFqf2gX8-2" target="eQuBDasWxpKYxFqf2gX8-3">
          <mxGeometry relative="1" as="geometry" />
        </mxCell>
        <mxCell id="eQuBDasWxpKYxFqf2gX8-5" value="" style="shape=cylinder3;whiteSpace=wrap;html=1;boundedLbl=1;backgroundOutline=1;size=15;rotation=-90;fillColor=#fa6800;fontColor=#000000;strokeColor=#C73500;" vertex="1" parent="1">
          <mxGeometry x="560" y="302.5" width="60" height="35" as="geometry" />
        </mxCell>
        <mxCell id="eQuBDasWxpKYxFqf2gX8-6" value="" style="shape=cylinder3;whiteSpace=wrap;html=1;boundedLbl=1;backgroundOutline=1;size=15;rotation=-90;fillColor=#fa6800;fontColor=#000000;strokeColor=#C73500;" vertex="1" parent="1">
          <mxGeometry x="600" y="302.5" width="60" height="35" as="geometry" />
        </mxCell>
        <mxCell id="eQuBDasWxpKYxFqf2gX8-7" value="" style="shape=cylinder3;whiteSpace=wrap;html=1;boundedLbl=1;backgroundOutline=1;size=15;rotation=-90;fillColor=#fa6800;fontColor=#000000;strokeColor=#C73500;" vertex="1" parent="1">
          <mxGeometry x="640" y="302.5" width="60" height="35" as="geometry" />
        </mxCell>
        <mxCell id="eQuBDasWxpKYxFqf2gX8-8" value="ETL" style="triangle;whiteSpace=wrap;html=1;rotation=-180;horizontal=0;" vertex="1" parent="1">
          <mxGeometry x="790" y="185" width="70" height="110" as="geometry" />
        </mxCell>
        <mxCell id="eQuBDasWxpKYxFqf2gX8-13" style="edgeStyle=orthogonalEdgeStyle;rounded=0;orthogonalLoop=1;jettySize=auto;html=1;exitX=0;exitY=0.5;exitDx=0;exitDy=0;" edge="1" parent="1" source="eQuBDasWxpKYxFqf2gX8-9" target="eQuBDasWxpKYxFqf2gX8-12">
          <mxGeometry relative="1" as="geometry" />
        </mxCell>
        <mxCell id="eQuBDasWxpKYxFqf2gX8-9" value="COMP" style="triangle;whiteSpace=wrap;html=1;rotation=-180;horizontal=0;" vertex="1" parent="1">
          <mxGeometry x="790" y="335" width="70" height="110" as="geometry" />
        </mxCell>
        <mxCell id="eQuBDasWxpKYxFqf2gX8-12" value="ELASTIC" style="shape=cylinder3;whiteSpace=wrap;html=1;boundedLbl=1;backgroundOutline=1;size=15;fillColor=#647687;fontColor=#ffffff;strokeColor=#314354;" vertex="1" parent="1">
          <mxGeometry x="950" y="210" width="250" height="210" as="geometry" />
        </mxCell>
        <mxCell id="eQuBDasWxpKYxFqf2gX8-14" style="edgeStyle=orthogonalEdgeStyle;rounded=0;orthogonalLoop=1;jettySize=auto;html=1;entryX=0;entryY=0.5;entryDx=0;entryDy=0;entryPerimeter=0;" edge="1" parent="1" source="eQuBDasWxpKYxFqf2gX8-8" target="eQuBDasWxpKYxFqf2gX8-12">
          <mxGeometry relative="1" as="geometry" />
        </mxCell>
        <mxCell id="eQuBDasWxpKYxFqf2gX8-15" value="" style="shape=cylinder3;whiteSpace=wrap;html=1;boundedLbl=1;backgroundOutline=1;size=15;rotation=-90;fillColor=#fa6800;fontColor=#000000;strokeColor=#C73500;" vertex="1" parent="1">
          <mxGeometry x="350" y="302.5" width="60" height="35" as="geometry" />
        </mxCell>
        <mxCell id="eQuBDasWxpKYxFqf2gX8-16" value="" style="shape=cylinder3;whiteSpace=wrap;html=1;boundedLbl=1;backgroundOutline=1;size=15;rotation=-90;fillColor=#fa6800;fontColor=#000000;strokeColor=#C73500;" vertex="1" parent="1">
          <mxGeometry x="390" y="302.5" width="60" height="35" as="geometry" />
        </mxCell>
        <mxCell id="eQuBDasWxpKYxFqf2gX8-17" value="" style="shape=cylinder3;whiteSpace=wrap;html=1;boundedLbl=1;backgroundOutline=1;size=15;rotation=-90;fillColor=#fa6800;fontColor=#000000;strokeColor=#C73500;" vertex="1" parent="1">
          <mxGeometry x="427.5" y="302.5" width="60" height="35" as="geometry" />
        </mxCell>
      </root>
    </mxGraphModel>
  </diagram>
</mxfile>
